<?xml version="1.0" encoding="UTF-8"?>
<svg id="Réteg_2" data-name="Réteg 2" xmlns="http://www.w3.org/2000/svg" xmlns:xlink="http://www.w3.org/1999/xlink" viewBox="0 0 70.08 91.35">
  <defs>
    <style>
      .cls-1 {
        fill: url(#New_Gradient_Swatch_3-36);
      }

      .cls-2 {
        fill: url(#New_Gradient_Swatch_3-35);
      }

      .cls-3 {
        fill: url(#New_Gradient_Swatch_3-34);
      }

      .cls-4 {
        fill: url(#New_Gradient_Swatch_3-33);
      }

      .cls-5 {
        fill: url(#New_Gradient_Swatch_3-32);
      }

      .cls-6 {
        fill: url(#New_Gradient_Swatch_3-31);
      }

      .cls-7 {
        fill: url(#New_Gradient_Swatch_3-30);
      }

      .cls-8 {
        fill: url(#New_Gradient_Swatch_3-25);
      }

      .cls-9 {
        fill: url(#New_Gradient_Swatch_3-24);
      }

      .cls-10 {
        fill: url(#New_Gradient_Swatch_3-29);
      }

      .cls-11 {
        fill: url(#New_Gradient_Swatch_3-26);
      }

      .cls-12 {
        fill: url(#New_Gradient_Swatch_3-23);
      }

      .cls-13 {
        fill: url(#New_Gradient_Swatch_3-28);
      }

      .cls-14 {
        fill: url(#New_Gradient_Swatch_3-27);
      }

      .cls-15 {
        fill: url(#New_Gradient_Swatch_3-21);
      }

      .cls-16 {
        fill: url(#New_Gradient_Swatch_3-10);
      }

      .cls-17 {
        fill: url(#New_Gradient_Swatch_3-12);
      }

      .cls-18 {
        fill: url(#New_Gradient_Swatch_3-11);
      }

      .cls-19 {
        fill: url(#New_Gradient_Swatch_3-22);
      }

      .cls-20 {
        fill: url(#New_Gradient_Swatch_3-13);
      }

      .cls-21 {
        fill: url(#New_Gradient_Swatch_3-20);
      }

      .cls-22 {
        fill: url(#New_Gradient_Swatch_3-15);
      }

      .cls-23 {
        fill: url(#New_Gradient_Swatch_3-14);
      }

      .cls-24 {
        fill: url(#New_Gradient_Swatch_3-17);
      }

      .cls-25 {
        fill: url(#New_Gradient_Swatch_3-16);
      }

      .cls-26 {
        fill: url(#New_Gradient_Swatch_3-19);
      }

      .cls-27 {
        fill: url(#New_Gradient_Swatch_3-18);
      }

      .cls-28 {
        fill: #fff;
        font-family: Rubik-SemiBold, 'Rubik SemiBold';
        font-size: 12.76px;
        font-weight: 600;
        letter-spacing: .6em;
      }

      .cls-29 {
        fill: url(#New_Gradient_Swatch_3);
      }

      .cls-30 {
        fill: url(#New_Gradient_Swatch_3-5);
      }

      .cls-31 {
        fill: url(#New_Gradient_Swatch_3-2);
      }

      .cls-32 {
        fill: url(#New_Gradient_Swatch_3-6);
      }

      .cls-33 {
        fill: url(#New_Gradient_Swatch_3-7);
      }

      .cls-34 {
        fill: url(#New_Gradient_Swatch_3-8);
      }

      .cls-35 {
        fill: url(#New_Gradient_Swatch_3-3);
      }

      .cls-36 {
        fill: url(#New_Gradient_Swatch_3-9);
      }

      .cls-37 {
        fill: url(#New_Gradient_Swatch_3-4);
      }
    </style>
    <linearGradient id="New_Gradient_Swatch_3" data-name="New Gradient Swatch 3" x1=".69" y1="30.29" x2="41.46" y2="30.29" gradientUnits="userSpaceOnUse">
      <stop offset=".36" stop-color="#e80a89"/>
      <stop offset=".98" stop-color="#28aae1"/>
    </linearGradient>
    <linearGradient id="New_Gradient_Swatch_3-2" data-name="New Gradient Swatch 3" x1="30.33" y1="9.03" x2="56.7" y2="9.03" xlink:href="#New_Gradient_Swatch_3"/>
    <linearGradient id="New_Gradient_Swatch_3-3" data-name="New Gradient Swatch 3" x1="31.05" y1="59.9" x2="56.84" y2="59.9" xlink:href="#New_Gradient_Swatch_3"/>
    <linearGradient id="New_Gradient_Swatch_3-4" data-name="New Gradient Swatch 3" x1="4.87" y1="19" x2="43.81" y2="19" xlink:href="#New_Gradient_Swatch_3"/>
    <linearGradient id="New_Gradient_Swatch_3-5" data-name="New Gradient Swatch 3" x1="5.07" y1="50.12" x2="43.88" y2="50.12" xlink:href="#New_Gradient_Swatch_3"/>
    <linearGradient id="New_Gradient_Swatch_3-6" data-name="New Gradient Swatch 3" x1=".73" y1="38.9" x2="41.5" y2="38.9" xlink:href="#New_Gradient_Swatch_3"/>
    <linearGradient id="New_Gradient_Swatch_3-7" data-name="New Gradient Swatch 3" x1="2.04" y1="24.04" x2="42.15" y2="24.04" xlink:href="#New_Gradient_Swatch_3"/>
    <linearGradient id="New_Gradient_Swatch_3-8" data-name="New Gradient Swatch 3" x1="2.15" y1="45.1" x2="42.21" y2="45.1" xlink:href="#New_Gradient_Swatch_3"/>
    <linearGradient id="New_Gradient_Swatch_3-9" data-name="New Gradient Swatch 3" x1="9.71" y1="14.97" x2="45.87" y2="14.97" xlink:href="#New_Gradient_Swatch_3"/>
    <linearGradient id="New_Gradient_Swatch_3-10" data-name="New Gradient Swatch 3" x1="10" y1="54.15" x2="45.94" y2="54.15" xlink:href="#New_Gradient_Swatch_3"/>
    <linearGradient id="New_Gradient_Swatch_3-11" data-name="New Gradient Swatch 3" x1="15.86" y1="11.64" x2="49.28" y2="11.64" xlink:href="#New_Gradient_Swatch_3"/>
    <linearGradient id="New_Gradient_Swatch_3-12" data-name="New Gradient Swatch 3" x1="16.26" y1="57.42" x2="49.39" y2="57.42" xlink:href="#New_Gradient_Swatch_3"/>
    <linearGradient id="New_Gradient_Swatch_3-13" data-name="New Gradient Swatch 3" x1="22.72" y1="9.5" x2="52.16" y2="9.5" xlink:href="#New_Gradient_Swatch_3"/>
    <linearGradient id="New_Gradient_Swatch_3-14" data-name="New Gradient Swatch 3" x1="23.26" y1="59.5" x2="52.28" y2="59.5" xlink:href="#New_Gradient_Swatch_3"/>
    <linearGradient id="New_Gradient_Swatch_3-15" data-name="New Gradient Swatch 3" x1="37.74" y1="9.44" x2="60.6" y2="9.44" xlink:href="#New_Gradient_Swatch_3"/>
    <linearGradient id="New_Gradient_Swatch_3-16" data-name="New Gradient Swatch 3" x1="38.86" y1="59.43" x2="60.73" y2="59.43" xlink:href="#New_Gradient_Swatch_3"/>
    <linearGradient id="New_Gradient_Swatch_3-17" data-name="New Gradient Swatch 3" x1="48.74" y1="12.62" x2="65.42" y2="12.62" xlink:href="#New_Gradient_Swatch_3"/>
    <linearGradient id="New_Gradient_Swatch_3-18" data-name="New Gradient Swatch 3" x1="48.49" y1="55.79" x2="66.18" y2="55.79" xlink:href="#New_Gradient_Swatch_3"/>
    <linearGradient id="New_Gradient_Swatch_3-19" data-name="New Gradient Swatch 3" x1="46.83" y1="22.01" x2="56.91" y2="22.01" xlink:href="#New_Gradient_Swatch_3"/>
    <linearGradient id="New_Gradient_Swatch_3-20" data-name="New Gradient Swatch 3" x1="46.81" y1="47.47" x2="56.59" y2="47.47" xlink:href="#New_Gradient_Swatch_3"/>
    <linearGradient id="New_Gradient_Swatch_3-21" data-name="New Gradient Swatch 3" x1="51.77" y1="26.99" x2="66.6" y2="26.99" xlink:href="#New_Gradient_Swatch_3"/>
    <linearGradient id="New_Gradient_Swatch_3-22" data-name="New Gradient Swatch 3" x1="51.73" y1="42.56" x2="66.54" y2="42.56" xlink:href="#New_Gradient_Swatch_3"/>
    <linearGradient id="New_Gradient_Swatch_3-23" data-name="New Gradient Swatch 3" x1="52.69" y1="32.65" x2="68.19" y2="32.65" xlink:href="#New_Gradient_Swatch_3"/>
    <linearGradient id="New_Gradient_Swatch_3-24" data-name="New Gradient Swatch 3" x1="52.68" y1="36.93" x2="68.18" y2="36.93" xlink:href="#New_Gradient_Swatch_3"/>
    <linearGradient id="New_Gradient_Swatch_3-25" data-name="New Gradient Swatch 3" x1="52.42" y1="29.52" x2="67.71" y2="29.52" xlink:href="#New_Gradient_Swatch_3"/>
    <linearGradient id="New_Gradient_Swatch_3-26" data-name="New Gradient Swatch 3" x1="52.4" y1="40.06" x2="67.67" y2="40.06" xlink:href="#New_Gradient_Swatch_3"/>
    <linearGradient id="New_Gradient_Swatch_3-27" data-name="New Gradient Swatch 3" x1="50.98" y1="24.99" x2="64.8" y2="24.99" xlink:href="#New_Gradient_Swatch_3"/>
    <linearGradient id="New_Gradient_Swatch_3-28" data-name="New Gradient Swatch 3" x1="50.95" y1="44.57" x2="64.7" y2="44.57" xlink:href="#New_Gradient_Swatch_3"/>
    <linearGradient id="New_Gradient_Swatch_3-29" data-name="New Gradient Swatch 3" x1="49.68" y1="23.33" x2="62.45" y2="23.33" xlink:href="#New_Gradient_Swatch_3"/>
    <linearGradient id="New_Gradient_Swatch_3-30" data-name="New Gradient Swatch 3" x1="49.68" y1="46.21" x2="62.26" y2="46.21" xlink:href="#New_Gradient_Swatch_3"/>
    <linearGradient id="New_Gradient_Swatch_3-31" data-name="New Gradient Swatch 3" x1="48.62" y1="22.23" x2="59.77" y2="22.23" xlink:href="#New_Gradient_Swatch_3"/>
    <linearGradient id="New_Gradient_Swatch_3-32" data-name="New Gradient Swatch 3" x1="48.56" y1="47.25" x2="59.59" y2="47.25" xlink:href="#New_Gradient_Swatch_3"/>
    <linearGradient id="New_Gradient_Swatch_3-33" data-name="New Gradient Swatch 3" x1="45.3" y1="22.22" x2="54.03" y2="22.22" xlink:href="#New_Gradient_Swatch_3"/>
    <linearGradient id="New_Gradient_Swatch_3-34" data-name="New Gradient Swatch 3" x1="45.32" y1="47.2" x2="53.6" y2="47.2" xlink:href="#New_Gradient_Swatch_3"/>
    <linearGradient id="New_Gradient_Swatch_3-35" data-name="New Gradient Swatch 3" x1="43.66" y1="23.66" x2="49.85" y2="23.66" xlink:href="#New_Gradient_Swatch_3"/>
    <linearGradient id="New_Gradient_Swatch_3-36" data-name="New Gradient Swatch 3" x1="43.63" y1="45.87" x2="49.75" y2="45.87" xlink:href="#New_Gradient_Swatch_3"/>
  </defs>
  <g id="Layer_1" data-name="Layer 1">
    <text class="cls-28" transform="translate(.01 88.16)"><tspan x="0" y="0">THEIA</tspan></text>
    <g>
      <path class="cls-29" d="M.69,32.67c.02-.22,.05-.43,.06-.65,.09-1.35,.26-2.69,.51-4.02,.01-.06,.03-.13,.04-.18,.41,0,.8,0,1.2,0,1.38,.04,2.75,.06,4.13,.12,1.85,.08,3.7,.17,5.55,.27,1.48,.08,2.96,.18,4.44,.3,1.54,.12,3.07,.26,4.61,.41,1.63,.17,3.27,.33,4.9,.55,2.29,.31,4.58,.65,6.86,1.01,2.78,.44,5.54,1.03,8.28,1.65,.06,.01,.13,.03,.19,.05v.05c-.2,0-.41,0-.61,0-1.64,.03-3.27,.05-4.91,.08-1.87,.03-3.75,.07-5.62,.11-1.3,.02-2.6,.05-3.9,.07-1.42,.02-2.84,.05-4.25,.07-1.57,.02-3.14,.05-4.72,.07-2.07,.03-4.14,.05-6.21,.07-1.23,.01-2.46,.03-3.69,.04-1.12,0-2.23,0-3.35,.01-1.1,0-2.2,0-3.29,.01-.07,0-.14-.02-.21-.03,0-.02,0-.05,0-.07Z"/>
      <path class="cls-31" d="M34.93,0c.38,.16,.76,.32,1.14,.49,4.82,2.05,9.17,4.81,13.02,8.37,2.62,2.42,4.91,5.14,6.9,8.1,.22,.32,.43,.64,.64,.96,.03,.05,.06,.1,.07,.16-.3-.29-.59-.57-.89-.86-3.24-3.1-6.68-5.97-10.34-8.57-3.28-2.32-6.7-4.41-10.32-6.15-1.52-.73-3.07-1.37-4.61-2.06-.07-.03-.14-.06-.21-.12,.39-.04,.78-.1,1.18-.13,.79-.06,1.59-.1,2.38-.15,.03,0,.05-.02,.08-.03,.32,0,.64,0,.96,0Z"/>
      <path class="cls-35" d="M34.11,68.83c-.06,0-.12-.02-.19-.03-.94-.07-1.88-.13-2.82-.2-.01,0-.02,0-.05-.03,.05-.03,.08-.05,.12-.07,5.59-2.29,10.76-5.32,15.61-8.91,2.99-2.21,5.81-4.61,8.51-7.16,.52-.49,1.03-.99,1.55-1.47-.04,.06-.07,.12-.11,.18-1.59,2.46-3.35,4.8-5.35,6.94-2.73,2.92-5.81,5.42-9.22,7.5-1.97,1.2-4.01,2.25-6.14,3.13-.1,.04-.2,.07-.3,.1h-1.6Z"/>
      <path class="cls-37" d="M43.79,24.94c-.16-.05-.33-.1-.49-.14,0,0,0,.02-.01,.03,.15,.08,.3,.16,.46,.23,0,.02,0,.03-.01,.05-1.05-.19-2.11-.36-3.16-.58-3.98-.84-7.96-1.72-11.95-2.54-3.36-.69-6.74-1.33-10.11-1.95-2.67-.49-5.35-.91-8.04-1.34-1.8-.29-3.6-.53-5.4-.79-.06,0-.11-.02-.19-.04,.23-.4,.45-.79,.68-1.17,.77-1.28,1.61-2.5,2.53-3.68,.11-.14,.21-.16,.36-.12,2.13,.44,4.27,.85,6.39,1.32,4.57,1.02,9.07,2.28,13.51,3.77,3.51,1.18,6.98,2.49,10.34,4.06,1.72,.81,3.41,1.67,4.98,2.74,.05,.04,.1,.08,.16,.11,0,0-.01,.02-.02,.03Z"/>
      <path class="cls-30" d="M5.07,51.28c.78-.11,1.55-.22,2.32-.34,1.67-.25,3.34-.5,5.01-.78,1.96-.32,3.92-.65,5.87-1.01,2.17-.39,4.34-.79,6.5-1.23,3.21-.65,6.42-1.33,9.63-2.01,2.16-.46,4.31-.95,6.46-1.41,.96-.2,1.93-.36,2.9-.53,0,.02,.01,.04,.02,.06-.14,.07-.27,.14-.41,.21,0,.01,0,.02,0,.03,.16-.05,.32-.09,.48-.14,0,0,.01,.02,.02,.03-.16,.11-.32,.22-.49,.33-1.7,1.12-3.52,2.03-5.37,2.88-3.05,1.4-6.19,2.59-9.36,3.67-3.7,1.26-7.45,2.35-11.24,3.29-2.89,.72-5.81,1.35-8.74,1.9-.15,.03-.24,0-.34-.13-1.19-1.48-2.25-3.04-3.19-4.69-.03-.04-.05-.09-.07-.15Z"/>
      <path class="cls-32" d="M41.5,36.9c-.53,.12-1.06,.25-1.59,.36-2.32,.46-4.63,.95-6.96,1.37-1.9,.34-3.81,.61-5.71,.87-1.62,.23-3.24,.41-4.86,.59-1.4,.16-2.8,.29-4.2,.41-1.63,.14-3.26,.27-4.9,.38-1.43,.1-2.85,.17-4.28,.24-1.42,.07-2.84,.12-4.27,.17-1.04,.04-2.09,.06-3.13,.1-.08,0-.15,0-.24,0-.34-1.64-.55-3.29-.65-4.98,.07,0,.13,0,.19,0,2.06,0,4.12,0,6.18,0,1.94,0,3.88,.02,5.82,.03,1.22,0,2.44,.02,3.67,.04,1.91,.02,3.82,.05,5.73,.07,1.61,.02,3.23,.05,4.84,.07,1.48,.02,2.95,.05,4.43,.07,1.41,.02,2.81,.05,4.22,.07,1.39,.02,2.79,.05,4.18,.07,.5,0,1,0,1.5,0,0,.02,0,.04,0,.06Z"/>
      <path class="cls-33" d="M2.04,24.74c.42-1.43,.92-2.81,1.51-4.16,.08-.17,.15-.35,.24-.52,.02-.05,.1-.1,.15-.09,1.25,.13,2.5,.25,3.75,.39,1.27,.15,2.53,.3,3.8,.47,1.49,.2,2.98,.41,4.47,.65,1.74,.28,3.47,.59,5.2,.91,2.72,.5,5.42,1.09,8.1,1.75,3.28,.81,6.53,1.73,9.73,2.81,1.03,.35,2.05,.71,3.07,1.07,.03,.01,.06,.03,.09,.07-.34-.02-.68-.03-1.01-.05-1.43-.1-2.85-.2-4.28-.31-1.38-.11-2.76-.22-4.13-.34-1.27-.11-2.54-.22-3.81-.34-1.22-.11-2.45-.23-3.67-.34-1.19-.11-2.39-.22-3.58-.33-1.33-.13-2.66-.25-3.99-.38-1.36-.13-2.72-.25-4.08-.37-1.33-.12-2.66-.23-3.99-.34-1.28-.1-2.57-.2-3.85-.3-1.22-.09-2.44-.17-3.66-.25-.02,0-.03,0-.07-.01Z"/>
      <path class="cls-34" d="M2.15,44.42c.69-.05,1.36-.09,2.02-.14,1.34-.1,2.69-.2,4.03-.31,1.19-.1,2.39-.2,3.58-.3,1.37-.12,2.74-.25,4.11-.38,1.3-.12,2.6-.24,3.9-.37,1.29-.12,2.59-.25,3.88-.38,1.16-.11,2.33-.22,3.49-.33,1.22-.12,2.44-.23,3.67-.34,1.26-.11,2.53-.23,3.79-.33,1.42-.12,2.84-.23,4.26-.34,1.11-.08,2.21-.16,3.33-.2-.04,.02-.08,.04-.12,.06-3.69,1.35-7.43,2.52-11.23,3.51-3.05,.79-6.11,1.5-9.21,2.08-2.35,.44-4.71,.85-7.08,1.23-2.04,.32-4.09,.58-6.13,.85-1.41,.18-2.83,.31-4.24,.47-.15,.02-.23-.03-.29-.17-.68-1.47-1.26-2.97-1.73-4.51,0-.02-.01-.04-.03-.09Z"/>
      <path class="cls-36" d="M45.85,22.27c-5.87-2.3-11.81-4.4-17.83-6.27-6.02-1.88-12.11-3.52-18.31-4.86,.17-.18,.32-.35,.48-.52,.98-1.02,2.01-1.98,3.1-2.88,.1-.08,.18-.09,.29-.06,4.53,1.17,8.98,2.61,13.33,4.32,2.99,1.18,5.92,2.47,8.78,3.92,3.06,1.55,6.04,3.25,8.82,5.27,.46,.34,.91,.69,1.36,1.03,0,.01-.01,.03-.02,.04Z"/>
      <path class="cls-16" d="M45.94,46.84c-.33,.26-.67,.53-1,.79-2.26,1.71-4.67,3.17-7.16,4.51-4.93,2.68-10.08,4.87-15.38,6.71-2.79,.97-5.61,1.83-8.47,2.57-.12,.03-.2,.02-.29-.06-1.25-1-2.43-2.09-3.54-3.25-.03-.03-.06-.07-.1-.13,6.15-1.35,12.2-3,18.19-4.89,5.99-1.88,11.89-3.99,17.75-6.26Z"/>
      <path class="cls-18" d="M49.28,19.86C38.61,14.08,27.6,9.14,15.86,5.82c.26-.17,.49-.33,.73-.48,1.08-.69,2.2-1.32,3.35-1.88,.08-.04,.21-.05,.3-.03,4.11,1.23,8.1,2.8,11.94,4.7,5.42,2.69,10.43,5.99,15.04,9.89,.66,.56,1.3,1.13,1.94,1.7,.04,.04,.08,.08,.12,.12Z"/>
      <path class="cls-17" d="M49.39,49.21c-.46,.41-.91,.82-1.37,1.22-3.74,3.27-7.76,6.15-12.08,8.61-4.17,2.38-8.53,4.34-13.08,5.88-.7,.24-1.41,.46-2.11,.69-.13,.04-.23,.03-.35-.03-1.38-.66-2.72-1.4-4.01-2.23-.03-.02-.07-.05-.13-.09,11.63-3.34,22.55-8.28,33.13-14.05Z"/>
      <path class="cls-20" d="M52.16,18.11c-9-6.78-18.71-12.22-29.45-15.86,.46-.16,.88-.34,1.31-.46,1.04-.31,2.08-.6,3.13-.89,.09-.03,.21-.01,.31,.02,5.44,1.97,10.48,4.68,15.12,8.14,1.91,1.43,3.72,2.97,5.43,4.62,1.4,1.35,2.73,2.76,4,4.23,.05,.06,.11,.13,.16,.19Z"/>
      <path class="cls-23" d="M52.28,50.96c-.61,.68-1.21,1.37-1.82,2.04-4.56,4.95-9.82,9-15.79,12.11-2.12,1.11-4.3,2.08-6.54,2.92-.1,.04-.22,.06-.33,.03-1.49-.31-2.94-.73-4.38-1.24-.04-.02-.08-.03-.16-.07,10.58-3.66,20.15-9.08,28.99-15.83,0,.01,.02,.02,.03,.03Z"/>
      <path class="cls-22" d="M37.75,.11c.73,.09,1.46,.18,2.19,.27,.92,.1,1.75,.5,2.6,.84,3.25,1.3,6.28,3,9.01,5.2,3.16,2.55,5.77,5.56,7.7,9.14,.52,.97,.98,1.96,1.33,3,.02,.07,.04,.13,.03,.21-.03-.04-.07-.07-.1-.11-1.7-2.22-3.52-4.34-5.46-6.35-3.69-3.81-7.77-7.13-12.39-9.75-1.54-.88-3.13-1.66-4.77-2.34-.04-.02-.09-.04-.13-.05,0-.02,0-.04,0-.05Z"/>
      <path class="cls-25" d="M38.86,68.56c.57-.27,1.14-.53,1.7-.81,3.34-1.66,6.43-3.71,9.31-6.07,1.64-1.34,3.19-2.77,4.68-4.27,2.17-2.2,4.17-4.53,6.03-6.99,.04-.05,.08-.1,.15-.14-.02,.07-.04,.13-.06,.2-.43,1.31-1.03,2.55-1.71,3.75-2.01,3.52-4.68,6.47-7.89,8.94-2.58,1.99-5.41,3.55-8.44,4.75-.46,.18-.96,.25-1.45,.33-.72,.13-1.45,.23-2.18,.34-.05,0-.09,0-.14,0,0,0,0-.02,0-.02Z"/>
      <path class="cls-24" d="M48.76,2.61c.09,.04,.17,.09,.26,.13,1.98,1.03,3.93,2.12,5.8,3.35,3.14,2.07,5.63,4.81,7.42,8.25,1.18,2.26,2.04,4.67,2.82,7.11,.12,.37,.23,.75,.36,1.17-.28-.17-.54-.26-.69-.53-.86-1.54-1.75-3.07-2.58-4.63-1.51-2.86-3.29-5.5-5.39-7.9-2.07-2.36-4.31-4.5-6.89-6.21-.37-.25-.75-.48-1.13-.72,0-.01,0-.02,.01-.03Z"/>
      <path class="cls-27" d="M66.18,45.93c-.46,1.25-.89,2.46-1.35,3.65-.74,1.91-1.58,3.77-2.69,5.48-.47,.71-1.03,1.36-1.59,2-1.7,1.94-3.58,3.68-5.64,5.17-.61,.44-1.28,.81-1.94,1.15-1.46,.77-2.94,1.5-4.41,2.25-.02,0-.03,0-.06-.01,.12-.07,.23-.13,.35-.2,2.31-1.29,4.4-2.91,6.33-4.78,2.12-2.05,4.11-4.25,5.74-6.77,1.02-1.59,1.95-3.24,2.93-4.86,.48-.79,.98-1.57,1.45-2.37,.2-.34,.47-.58,.88-.73Z"/>
    </g>
    <g>
      <path class="cls-26" d="M55.69,17.52c.29,.04,.57,.07,.86,.11,.1,.01,.21,.03,.36,.06-4.09,2.16-7.26,5.29-10.08,8.81,.08-.16,.16-.32,.25-.48,1.06-2.07,2.37-3.96,4.05-5.59,1.13-1.09,2.38-2.02,3.76-2.77,.08-.04,.15-.09,.22-.14,.19,0,.38,0,.57,0Z"/>
      <path class="cls-21" d="M54.75,51.9c-.05-.04-.1-.08-.15-.11-2.31-1.31-4.19-3.08-5.73-5.23-.77-1.08-1.43-2.23-2.02-3.41-.02-.03-.03-.06-.03-.1,2.75,3.48,5.84,6.57,9.78,8.75-.23,.02-.47,.05-.7,.07-.07,0-.14,.02-.2,.03h-.93Z"/>
      <path class="cls-15" d="M51.77,29.98c.67-.65,1.41-1.14,2.17-1.59,2.19-1.3,4.51-2.3,6.9-3.14,1.41-.49,2.85-.91,4.3-1.27,.13-.03,.2-.02,.27,.11,.44,.75,.84,1.53,1.18,2.36-.33,.06-.64,.12-.95,.18-2.74,.51-5.45,1.15-8.14,1.88-1.67,.45-3.33,.92-5,1.38-.17,.05-.35,.09-.52,.11-.07,.01-.14-.02-.22-.03Z"/>
      <path class="cls-19" d="M51.75,39.59s.05,0,.08,0c-.02-.03-.03-.05-.05-.08,.02,0,.04,0,.05,0,1.11,.3,2.23,.58,3.33,.9,3.43,.98,6.88,1.86,10.39,2.54,.32,.06,.64,.12,1,.19-.2,.42-.38,.83-.59,1.22-.2,.38-.43,.75-.63,1.13-.06,.11-.12,.14-.25,.11-2.93-.73-5.77-1.72-8.49-3.01-1.34-.64-2.65-1.34-3.86-2.2-.34-.24-.66-.51-.99-.76l.02-.04Z"/>
      <path class="cls-12" d="M68.19,33.89c-5.18,0-10.33-.14-15.5-.3,.05-.02,.1-.04,.16-.06,2.18-.65,4.39-1.12,6.64-1.45,2.19-.32,4.4-.52,6.61-.62,.57-.03,1.13-.04,1.7-.06,.13,0,.19,.02,.2,.17,.06,.73,.13,1.45,.2,2.18,0,.03,0,.07,0,.14Z"/>
      <path class="cls-9" d="M52.68,35.91c5.16-.08,10.31-.16,15.5-.24-.02,.87-.11,1.69-.24,2.53-5.18-.15-10.29-.7-15.26-2.22,0-.02,0-.04,0-.06Z"/>
      <path class="cls-8" d="M67.03,27.49c.23,.8,.45,1.58,.69,2.4-5.14,.42-10.19,1.26-15.29,1.66,2.27-1.12,4.65-1.96,7.1-2.61,2.45-.66,4.94-1.13,7.51-1.44Z"/>
      <path class="cls-11" d="M66.97,42.11c-5.08-.68-9.97-1.87-14.57-4.1,5.09,.41,10.13,1.27,15.27,1.7-.24,.81-.47,1.6-.71,2.4Z"/>
      <path class="cls-14" d="M64.8,23.07c-4.84,1.38-9.39,3.31-13.83,5.53,.12-.12,.23-.24,.35-.36,.12-.12,.25-.24,.37-.36,1.93-1.75,4.1-3.14,6.41-4.34,1.64-.86,3.34-1.58,5.09-2.17,.06-.02,.17-.02,.2,.02,.46,.54,.92,1.09,1.41,1.67Z"/>
      <path class="cls-13" d="M64.7,46.5c-.49,.57-.96,1.12-1.44,1.66-.03,.04-.14,.03-.2,0-1.03-.4-2.08-.78-3.09-1.23-2.62-1.17-5.08-2.61-7.3-4.42-.6-.49-1.16-1.02-1.71-1.57,4.41,2.22,8.93,4.16,13.74,5.55Z"/>
      <path class="cls-10" d="M49.68,27.42c1.15-1.4,2.42-2.68,3.8-3.84,2.15-1.8,4.52-3.25,7.13-4.3,.12-.05,.22-.05,.33,.03,.48,.36,.97,.72,1.5,1.11-4.64,1.72-8.79,4.2-12.77,7Z"/>
      <path class="cls-7" d="M62.26,49.17c-.52,.37-1.04,.74-1.57,1.09-.06,.04-.17,.02-.24,0-2.04-.83-3.93-1.91-5.69-3.23-1.87-1.39-3.53-3-5.03-4.78-.02-.03-.04-.06-.06-.1,3.93,2.78,8.03,5.25,12.56,6.96,0,.02,.02,.04,.03,.06Z"/>
      <path class="cls-6" d="M59.77,18.66c-4.23,1.88-7.85,4.62-11.15,7.82,.02-.04,.03-.08,.06-.11,1.81-2.73,3.99-5.12,6.75-6.93,.8-.53,1.67-.96,2.51-1.44,.05-.03,.13-.04,.18-.02,.55,.2,1.1,.41,1.65,.62,0,.02,0,.04,0,.06Z"/>
      <path class="cls-5" d="M48.57,43c3.24,3.22,6.81,5.95,11.02,7.87-.14,.07-.26,.13-.38,.17-.42,.16-.84,.31-1.26,.45-.09,.03-.22,.02-.3-.03-1.91-.95-3.62-2.17-5.17-3.64-1.47-1.4-2.74-2.96-3.84-4.65-.03-.04-.05-.08-.08-.12,0,0,0-.02,0-.05Z"/>
      <path class="cls-4" d="M54.03,17.63c-.83,.45-1.61,.98-2.34,1.57-1.84,1.47-3.37,3.23-4.7,5.15-.54,.78-1.03,1.6-1.55,2.4-.03,.05-.06,.1-.09,.15-.02,0-.03-.01-.05-.02,.18-.5,.33-1.01,.53-1.5,1.09-2.67,2.77-4.88,5.18-6.5,.59-.4,1.22-.74,1.87-1.04,.35-.16,.76-.18,1.14-.26,0,.02,0,.04,.01,.06Z"/>
      <path class="cls-3" d="M53.6,51.74c-.6-.09-1.19-.16-1.73-.47-2.64-1.5-4.52-3.68-5.79-6.4-.33-.71-.6-1.44-.76-2.22,.04,.07,.08,.13,.12,.2,1.06,1.8,2.24,3.51,3.63,5.07,1.32,1.48,2.78,2.78,4.5,3.8,.01,0,.03,.02,.04,.03Z"/>
      <path class="cls-2" d="M43.66,27.93c.05-.19,.11-.38,.16-.58,.35-1.21,.75-2.4,1.32-3.52,.75-1.47,1.82-2.66,3.22-3.56,.49-.32,.98-.63,1.49-.91-.26,.21-.53,.41-.78,.62-1.08,.93-1.95,2.03-2.75,3.19-.7,1.02-1.22,2.14-1.75,3.26-.2,.43-.42,.85-.64,1.27-.05,.1-.15,.17-.22,.26-.02-.01-.03-.02-.05-.03Z"/>
      <path class="cls-1" d="M43.68,41.57c.07,.09,.16,.17,.21,.27,.49,.99,.96,1.99,1.46,2.97,.75,1.49,1.72,2.83,2.89,4.03,.47,.48,.99,.91,1.51,1.35-.03-.01-.07-.02-.09-.04-.64-.42-1.32-.79-1.9-1.27-.59-.49-1.09-1.1-1.6-1.67-1.11-1.23-1.69-2.74-2.15-4.29-.12-.39-.23-.79-.34-1.18-.01-.04-.02-.09-.03-.13l.05-.03Z"/>
    </g>
  </g>
</svg>