<?xml version="1.0" encoding="UTF-8" standalone="no"?>
<svg
   id="Réteg_2"
   data-name="Réteg 2"
   viewBox="0 0 63.999998 64.000001"
   version="1.1"
   sodipodi:docname="theia_square.svg"
   width="64"
   height="64"
   inkscape:version="1.2 (dc2aedaf03, 2022-05-15)"
   inkscape:export-filename="theia_icon\theia_192.png"
   inkscape:export-xdpi="267.79019"
   inkscape:export-ydpi="267.79019"
   xmlns:inkscape="http://www.inkscape.org/namespaces/inkscape"
   xmlns:sodipodi="http://sodipodi.sourceforge.net/DTD/sodipodi-0.dtd"
   xmlns:xlink="http://www.w3.org/1999/xlink"
   xmlns="http://www.w3.org/2000/svg"
   xmlns:svg="http://www.w3.org/2000/svg">
  <sodipodi:namedview
     id="namedview128"
     pagecolor="#ffffff"
     bordercolor="#000000"
     borderopacity="0.25"
     inkscape:showpageshadow="2"
     inkscape:pageopacity="0.0"
     inkscape:pagecheckerboard="0"
     inkscape:deskcolor="#d1d1d1"
     showgrid="false"
     inkscape:zoom="11.313709"
     inkscape:cx="8.5736693"
     inkscape:cy="42.072852"
     inkscape:window-width="2560"
     inkscape:window-height="1369"
     inkscape:window-x="-8"
     inkscape:window-y="-8"
     inkscape:window-maximized="1"
     inkscape:current-layer="Réteg_2" />
  <defs
     id="defs44">
    <style
       id="style2">
      .cls-1 {
        fill: url(#New_Gradient_Swatch_3-36);
      }

      .cls-2 {
        fill: url(#New_Gradient_Swatch_3-35);
      }

      .cls-3 {
        fill: url(#New_Gradient_Swatch_3-34);
      }

      .cls-4 {
        fill: url(#New_Gradient_Swatch_3-33);
      }

      .cls-5 {
        fill: url(#New_Gradient_Swatch_3-32);
      }

      .cls-6 {
        fill: url(#New_Gradient_Swatch_3-31);
      }

      .cls-7 {
        fill: url(#New_Gradient_Swatch_3-30);
      }

      .cls-8 {
        fill: url(#New_Gradient_Swatch_3-25);
      }

      .cls-9 {
        fill: url(#New_Gradient_Swatch_3-24);
      }

      .cls-10 {
        fill: url(#New_Gradient_Swatch_3-29);
      }

      .cls-11 {
        fill: url(#New_Gradient_Swatch_3-26);
      }

      .cls-12 {
        fill: url(#New_Gradient_Swatch_3-23);
      }

      .cls-13 {
        fill: url(#New_Gradient_Swatch_3-28);
      }

      .cls-14 {
        fill: url(#New_Gradient_Swatch_3-27);
      }

      .cls-15 {
        fill: url(#New_Gradient_Swatch_3-21);
      }

      .cls-16 {
        fill: url(#New_Gradient_Swatch_3-10);
      }

      .cls-17 {
        fill: url(#New_Gradient_Swatch_3-12);
      }

      .cls-18 {
        fill: url(#New_Gradient_Swatch_3-11);
      }

      .cls-19 {
        fill: url(#New_Gradient_Swatch_3-22);
      }

      .cls-20 {
        fill: url(#New_Gradient_Swatch_3-13);
      }

      .cls-21 {
        fill: url(#New_Gradient_Swatch_3-20);
      }

      .cls-22 {
        fill: url(#New_Gradient_Swatch_3-15);
      }

      .cls-23 {
        fill: url(#New_Gradient_Swatch_3-14);
      }

      .cls-24 {
        fill: url(#New_Gradient_Swatch_3-17);
      }

      .cls-25 {
        fill: url(#New_Gradient_Swatch_3-16);
      }

      .cls-26 {
        fill: url(#New_Gradient_Swatch_3-19);
      }

      .cls-27 {
        fill: url(#New_Gradient_Swatch_3-18);
      }

      .cls-28 {
        fill: #fff;
        font-family: Rubik-SemiBold, 'Rubik SemiBold';
        font-size: 12.76px;
        font-weight: 600;
        letter-spacing: .6em;
      }

      .cls-29 {
        fill: url(#New_Gradient_Swatch_3);
      }

      .cls-30 {
        fill: url(#New_Gradient_Swatch_3-5);
      }

      .cls-31 {
        fill: url(#New_Gradient_Swatch_3-2);
      }

      .cls-32 {
        fill: url(#New_Gradient_Swatch_3-6);
      }

      .cls-33 {
        fill: url(#New_Gradient_Swatch_3-7);
      }

      .cls-34 {
        fill: url(#New_Gradient_Swatch_3-8);
      }

      .cls-35 {
        fill: url(#New_Gradient_Swatch_3-3);
      }

      .cls-36 {
        fill: url(#New_Gradient_Swatch_3-9);
      }

      .cls-37 {
        fill: url(#New_Gradient_Swatch_3-4);
      }
    </style>
    <linearGradient
       id="New_Gradient_Swatch_3"
       data-name="New Gradient Swatch 3"
       x1="0.69"
       y1="30.290001"
       x2="41.459999"
       y2="30.290001"
       gradientUnits="userSpaceOnUse">
      <stop
         offset=".36"
         stop-color="#e80a89"
         id="stop4" />
      <stop
         offset=".98"
         stop-color="#28aae1"
         id="stop6" />
    </linearGradient>
    <linearGradient
       id="New_Gradient_Swatch_3-2"
       data-name="New Gradient Swatch 3"
       x1="30.33"
       y1="9.0299997"
       x2="56.700001"
       y2="9.0299997"
       xlink:href="#New_Gradient_Swatch_3" />
    <linearGradient
       id="New_Gradient_Swatch_3-3"
       data-name="New Gradient Swatch 3"
       x1="31.049999"
       y1="59.900002"
       x2="56.84"
       y2="59.900002"
       xlink:href="#New_Gradient_Swatch_3" />
    <linearGradient
       id="New_Gradient_Swatch_3-4"
       data-name="New Gradient Swatch 3"
       x1="4.8699999"
       y1="19"
       x2="43.810001"
       y2="19"
       xlink:href="#New_Gradient_Swatch_3" />
    <linearGradient
       id="New_Gradient_Swatch_3-5"
       data-name="New Gradient Swatch 3"
       x1="5.0700002"
       y1="50.119999"
       x2="43.880001"
       y2="50.119999"
       xlink:href="#New_Gradient_Swatch_3" />
    <linearGradient
       id="New_Gradient_Swatch_3-6"
       data-name="New Gradient Swatch 3"
       x1="0.73000002"
       y1="38.900002"
       x2="41.5"
       y2="38.900002"
       xlink:href="#New_Gradient_Swatch_3" />
    <linearGradient
       id="New_Gradient_Swatch_3-7"
       data-name="New Gradient Swatch 3"
       x1="2.04"
       y1="24.040001"
       x2="42.150002"
       y2="24.040001"
       xlink:href="#New_Gradient_Swatch_3" />
    <linearGradient
       id="New_Gradient_Swatch_3-8"
       data-name="New Gradient Swatch 3"
       x1="2.1500001"
       y1="45.099998"
       x2="42.209999"
       y2="45.099998"
       xlink:href="#New_Gradient_Swatch_3" />
    <linearGradient
       id="New_Gradient_Swatch_3-9"
       data-name="New Gradient Swatch 3"
       x1="9.71"
       y1="14.97"
       x2="45.869999"
       y2="14.97"
       xlink:href="#New_Gradient_Swatch_3" />
    <linearGradient
       id="New_Gradient_Swatch_3-10"
       data-name="New Gradient Swatch 3"
       x1="10"
       y1="54.150002"
       x2="45.939999"
       y2="54.150002"
       xlink:href="#New_Gradient_Swatch_3" />
    <linearGradient
       id="New_Gradient_Swatch_3-11"
       data-name="New Gradient Swatch 3"
       x1="15.86"
       y1="11.64"
       x2="49.279999"
       y2="11.64"
       xlink:href="#New_Gradient_Swatch_3" />
    <linearGradient
       id="New_Gradient_Swatch_3-12"
       data-name="New Gradient Swatch 3"
       x1="16.26"
       y1="57.419998"
       x2="49.389999"
       y2="57.419998"
       xlink:href="#New_Gradient_Swatch_3" />
    <linearGradient
       id="New_Gradient_Swatch_3-13"
       data-name="New Gradient Swatch 3"
       x1="22.719999"
       y1="9.5"
       x2="52.16"
       y2="9.5"
       xlink:href="#New_Gradient_Swatch_3" />
    <linearGradient
       id="New_Gradient_Swatch_3-14"
       data-name="New Gradient Swatch 3"
       x1="23.26"
       y1="59.5"
       x2="52.279999"
       y2="59.5"
       xlink:href="#New_Gradient_Swatch_3" />
    <linearGradient
       id="New_Gradient_Swatch_3-15"
       data-name="New Gradient Swatch 3"
       x1="37.740002"
       y1="9.4399996"
       x2="60.599998"
       y2="9.4399996"
       xlink:href="#New_Gradient_Swatch_3" />
    <linearGradient
       id="New_Gradient_Swatch_3-16"
       data-name="New Gradient Swatch 3"
       x1="38.860001"
       y1="59.43"
       x2="60.73"
       y2="59.43"
       xlink:href="#New_Gradient_Swatch_3" />
    <linearGradient
       id="New_Gradient_Swatch_3-17"
       data-name="New Gradient Swatch 3"
       x1="48.740002"
       y1="12.62"
       x2="65.419998"
       y2="12.62"
       xlink:href="#New_Gradient_Swatch_3" />
    <linearGradient
       id="New_Gradient_Swatch_3-18"
       data-name="New Gradient Swatch 3"
       x1="48.490002"
       y1="55.790001"
       x2="66.18"
       y2="55.790001"
       xlink:href="#New_Gradient_Swatch_3" />
    <linearGradient
       id="New_Gradient_Swatch_3-19"
       data-name="New Gradient Swatch 3"
       x1="46.830002"
       y1="22.01"
       x2="56.91"
       y2="22.01"
       xlink:href="#New_Gradient_Swatch_3" />
    <linearGradient
       id="New_Gradient_Swatch_3-20"
       data-name="New Gradient Swatch 3"
       x1="46.810001"
       y1="47.470001"
       x2="56.59"
       y2="47.470001"
       xlink:href="#New_Gradient_Swatch_3" />
    <linearGradient
       id="New_Gradient_Swatch_3-21"
       data-name="New Gradient Swatch 3"
       x1="51.77"
       y1="26.99"
       x2="66.599998"
       y2="26.99"
       xlink:href="#New_Gradient_Swatch_3" />
    <linearGradient
       id="New_Gradient_Swatch_3-22"
       data-name="New Gradient Swatch 3"
       x1="51.73"
       y1="42.560001"
       x2="66.540001"
       y2="42.560001"
       xlink:href="#New_Gradient_Swatch_3" />
    <linearGradient
       id="New_Gradient_Swatch_3-23"
       data-name="New Gradient Swatch 3"
       x1="52.689999"
       y1="32.650002"
       x2="68.190002"
       y2="32.650002"
       xlink:href="#New_Gradient_Swatch_3" />
    <linearGradient
       id="New_Gradient_Swatch_3-24"
       data-name="New Gradient Swatch 3"
       x1="52.68"
       y1="36.93"
       x2="68.18"
       y2="36.93"
       xlink:href="#New_Gradient_Swatch_3" />
    <linearGradient
       id="New_Gradient_Swatch_3-25"
       data-name="New Gradient Swatch 3"
       x1="52.419998"
       y1="29.52"
       x2="67.709999"
       y2="29.52"
       xlink:href="#New_Gradient_Swatch_3" />
    <linearGradient
       id="New_Gradient_Swatch_3-26"
       data-name="New Gradient Swatch 3"
       x1="52.400002"
       y1="40.060001"
       x2="67.669998"
       y2="40.060001"
       xlink:href="#New_Gradient_Swatch_3" />
    <linearGradient
       id="New_Gradient_Swatch_3-27"
       data-name="New Gradient Swatch 3"
       x1="50.98"
       y1="24.99"
       x2="64.800003"
       y2="24.99"
       xlink:href="#New_Gradient_Swatch_3" />
    <linearGradient
       id="New_Gradient_Swatch_3-28"
       data-name="New Gradient Swatch 3"
       x1="50.950001"
       y1="44.57"
       x2="64.699997"
       y2="44.57"
       xlink:href="#New_Gradient_Swatch_3" />
    <linearGradient
       id="New_Gradient_Swatch_3-29"
       data-name="New Gradient Swatch 3"
       x1="49.68"
       y1="23.33"
       x2="62.450001"
       y2="23.33"
       xlink:href="#New_Gradient_Swatch_3" />
    <linearGradient
       id="New_Gradient_Swatch_3-30"
       data-name="New Gradient Swatch 3"
       x1="49.68"
       y1="46.209999"
       x2="62.259998"
       y2="46.209999"
       xlink:href="#New_Gradient_Swatch_3" />
    <linearGradient
       id="New_Gradient_Swatch_3-31"
       data-name="New Gradient Swatch 3"
       x1="48.619999"
       y1="22.23"
       x2="59.77"
       y2="22.23"
       xlink:href="#New_Gradient_Swatch_3" />
    <linearGradient
       id="New_Gradient_Swatch_3-32"
       data-name="New Gradient Swatch 3"
       x1="48.560001"
       y1="47.25"
       x2="59.59"
       y2="47.25"
       xlink:href="#New_Gradient_Swatch_3" />
    <linearGradient
       id="New_Gradient_Swatch_3-33"
       data-name="New Gradient Swatch 3"
       x1="45.299999"
       y1="22.219999"
       x2="54.029999"
       y2="22.219999"
       xlink:href="#New_Gradient_Swatch_3" />
    <linearGradient
       id="New_Gradient_Swatch_3-34"
       data-name="New Gradient Swatch 3"
       x1="45.32"
       y1="47.200001"
       x2="53.599998"
       y2="47.200001"
       xlink:href="#New_Gradient_Swatch_3" />
    <linearGradient
       id="New_Gradient_Swatch_3-35"
       data-name="New Gradient Swatch 3"
       x1="43.66"
       y1="23.66"
       x2="49.849998"
       y2="23.66"
       xlink:href="#New_Gradient_Swatch_3" />
    <linearGradient
       id="New_Gradient_Swatch_3-36"
       data-name="New Gradient Swatch 3"
       x1="43.630001"
       y1="45.869999"
       x2="49.75"
       y2="45.869999"
       xlink:href="#New_Gradient_Swatch_3" />
    <linearGradient
       inkscape:collect="always"
       xlink:href="#New_Gradient_Swatch_3"
       id="linearGradient288"
       gradientUnits="userSpaceOnUse"
       x1="0.69"
       y1="30.290001"
       x2="41.459999"
       y2="30.290001" />
  </defs>
  <g
     id="g225"
     transform="scale(0.92982711)">
    <g
       id="g86"
       transform="translate(-0.69)">
      <path
         class="cls-29"
         d="M 0.69,32.67 C 0.71,32.45 0.74,32.24 0.75,32.02 0.84,30.67 1.01,29.33 1.26,28 1.27,27.94 1.29,27.87 1.3,27.82 c 0.41,0 0.8,0 1.2,0 1.38,0.04 2.75,0.06 4.13,0.12 1.85,0.08 3.7,0.17 5.55,0.27 1.48,0.08 2.96,0.18 4.44,0.3 1.54,0.12 3.07,0.26 4.61,0.41 1.63,0.17 3.27,0.33 4.9,0.55 2.29,0.31 4.58,0.65 6.86,1.01 2.78,0.44 5.54,1.03 8.28,1.65 0.06,0.01 0.13,0.03 0.19,0.05 v 0.05 c -0.2,0 -0.41,0 -0.61,0 -1.64,0.03 -3.27,0.05 -4.91,0.08 -1.87,0.03 -3.75,0.07 -5.62,0.11 -1.3,0.02 -2.6,0.05 -3.9,0.07 -1.42,0.02 -2.84,0.05 -4.25,0.07 -1.57,0.02 -3.14,0.05 -4.72,0.07 -2.07,0.03 -4.14,0.05 -6.21,0.07 -1.23,0.01 -2.46,0.03 -3.69,0.04 -1.12,0 -2.23,0 -3.35,0.01 -1.1,0 -2.2,0 -3.29,0.01 -0.07,0 -0.14,-0.02 -0.21,-0.03 0,-0.02 0,-0.05 0,-0.07 z"
         id="path50"
         style="fill:url(#linearGradient288)" />
      <path
         class="cls-31"
         d="m 34.93,0 c 0.38,0.16 0.76,0.32 1.14,0.49 4.82,2.05 9.17,4.81 13.02,8.37 2.62,2.42 4.91,5.14 6.9,8.1 0.22,0.32 0.43,0.64 0.64,0.96 0.03,0.05 0.06,0.1 0.07,0.16 C 56.4,17.79 56.11,17.51 55.81,17.22 52.57,14.12 49.13,11.25 45.47,8.65 42.19,6.33 38.77,4.24 35.15,2.5 33.63,1.77 32.08,1.13 30.54,0.44 30.47,0.41 30.4,0.38 30.33,0.32 c 0.39,-0.04 0.78,-0.1 1.18,-0.13 0.79,-0.06 1.59,-0.1 2.38,-0.15 0.03,0 0.05,-0.02 0.08,-0.03 0.32,0 0.64,0 0.96,0 z"
         id="path52"
         style="fill:url(#New_Gradient_Swatch_3-2)" />
      <path
         class="cls-35"
         d="m 34.11,68.83 c -0.06,0 -0.12,-0.02 -0.19,-0.03 -0.94,-0.07 -1.88,-0.13 -2.82,-0.2 -0.01,0 -0.02,0 -0.05,-0.03 0.05,-0.03 0.08,-0.05 0.12,-0.07 5.59,-2.29 10.76,-5.32 15.61,-8.91 2.99,-2.21 5.81,-4.61 8.51,-7.16 0.52,-0.49 1.03,-0.99 1.55,-1.47 -0.04,0.06 -0.07,0.12 -0.11,0.18 -1.59,2.46 -3.35,4.8 -5.35,6.94 -2.73,2.92 -5.81,5.42 -9.22,7.5 -1.97,1.2 -4.01,2.25 -6.14,3.13 -0.1,0.04 -0.2,0.07 -0.3,0.1 h -1.6 z"
         id="path54"
         style="fill:url(#New_Gradient_Swatch_3-3)" />
      <path
         class="cls-37"
         d="m 43.79,24.94 c -0.16,-0.05 -0.33,-0.1 -0.49,-0.14 0,0 0,0.02 -0.01,0.03 0.15,0.08 0.3,0.16 0.46,0.23 0,0.02 0,0.03 -0.01,0.05 C 42.69,24.92 41.63,24.75 40.58,24.53 36.6,23.69 32.62,22.81 28.63,21.99 25.27,21.3 21.89,20.66 18.52,20.04 15.85,19.55 13.17,19.13 10.48,18.7 8.68,18.41 6.88,18.17 5.08,17.91 5.02,17.91 4.97,17.89 4.89,17.87 5.12,17.47 5.34,17.08 5.57,16.7 6.34,15.42 7.18,14.2 8.1,13.02 8.21,12.88 8.31,12.86 8.46,12.9 c 2.13,0.44 4.27,0.85 6.39,1.32 4.57,1.02 9.07,2.28 13.51,3.77 3.51,1.18 6.98,2.49 10.34,4.06 1.72,0.81 3.41,1.67 4.98,2.74 0.05,0.04 0.1,0.08 0.16,0.11 0,0 -0.01,0.02 -0.02,0.03 z"
         id="path56"
         style="fill:url(#New_Gradient_Swatch_3-4)" />
      <path
         class="cls-30"
         d="m 5.07,51.28 c 0.78,-0.11 1.55,-0.22 2.32,-0.34 1.67,-0.25 3.34,-0.5 5.01,-0.78 1.96,-0.32 3.92,-0.65 5.87,-1.01 2.17,-0.39 4.34,-0.79 6.5,-1.23 3.21,-0.65 6.42,-1.33 9.63,-2.01 2.16,-0.46 4.31,-0.95 6.46,-1.41 0.96,-0.2 1.93,-0.36 2.9,-0.53 0,0.02 0.01,0.04 0.02,0.06 -0.14,0.07 -0.27,0.14 -0.41,0.21 0,0.01 0,0.02 0,0.03 0.16,-0.05 0.32,-0.09 0.48,-0.14 0,0 0.01,0.02 0.02,0.03 -0.16,0.11 -0.32,0.22 -0.49,0.33 -1.7,1.12 -3.52,2.03 -5.37,2.88 -3.05,1.4 -6.19,2.59 -9.36,3.67 -3.7,1.26 -7.45,2.35 -11.24,3.29 -2.89,0.72 -5.81,1.35 -8.74,1.9 -0.15,0.03 -0.24,0 -0.34,-0.13 C 7.14,54.62 6.08,53.06 5.14,51.41 5.11,51.37 5.09,51.32 5.07,51.26 Z"
         id="path58"
         style="fill:url(#New_Gradient_Swatch_3-5)" />
      <path
         class="cls-32"
         d="m 41.5,36.9 c -0.53,0.12 -1.06,0.25 -1.59,0.36 -2.32,0.46 -4.63,0.95 -6.96,1.37 -1.9,0.34 -3.81,0.61 -5.71,0.87 -1.62,0.23 -3.24,0.41 -4.86,0.59 -1.4,0.16 -2.8,0.29 -4.2,0.41 -1.63,0.14 -3.26,0.27 -4.9,0.38 -1.43,0.1 -2.85,0.17 -4.28,0.24 -1.42,0.07 -2.84,0.12 -4.27,0.17 -1.04,0.04 -2.09,0.06 -3.13,0.1 -0.08,0 -0.15,0 -0.24,0 -0.34,-1.64 -0.55,-3.29 -0.65,-4.98 0.07,0 0.13,0 0.19,0 2.06,0 4.12,0 6.18,0 1.94,0 3.88,0.02 5.82,0.03 1.22,0 2.44,0.02 3.67,0.04 1.91,0.02 3.82,0.05 5.73,0.07 1.61,0.02 3.23,0.05 4.84,0.07 1.48,0.02 2.95,0.05 4.43,0.07 1.41,0.02 2.81,0.05 4.22,0.07 1.39,0.02 2.79,0.05 4.18,0.07 0.5,0 1,0 1.5,0 0,0.02 0,0.04 0,0.06 z"
         id="path60"
         style="fill:url(#New_Gradient_Swatch_3-6)" />
      <path
         class="cls-33"
         d="m 2.04,24.74 c 0.42,-1.43 0.92,-2.81 1.51,-4.16 0.08,-0.17 0.15,-0.35 0.24,-0.52 0.02,-0.05 0.1,-0.1 0.15,-0.09 1.25,0.13 2.5,0.25 3.75,0.39 1.27,0.15 2.53,0.3 3.8,0.47 1.49,0.2 2.98,0.41 4.47,0.65 1.74,0.28 3.47,0.59 5.2,0.91 2.72,0.5 5.42,1.09 8.1,1.75 3.28,0.81 6.53,1.73 9.73,2.81 1.03,0.35 2.05,0.71 3.07,1.07 0.03,0.01 0.06,0.03 0.09,0.07 -0.34,-0.02 -0.68,-0.03 -1.01,-0.05 -1.43,-0.1 -2.85,-0.2 -4.28,-0.31 C 35.48,27.62 34.1,27.51 32.73,27.39 31.46,27.28 30.19,27.17 28.92,27.05 27.7,26.94 26.47,26.82 25.25,26.71 24.06,26.6 22.86,26.49 21.67,26.38 20.34,26.25 19.01,26.13 17.68,26 16.32,25.87 14.96,25.75 13.6,25.63 12.27,25.51 10.94,25.4 9.61,25.29 8.33,25.19 7.04,25.09 5.76,24.99 4.54,24.9 3.32,24.82 2.1,24.74 c -0.02,0 -0.03,0 -0.07,-0.01 z"
         id="path62"
         style="fill:url(#New_Gradient_Swatch_3-7)" />
      <path
         class="cls-34"
         d="m 2.15,44.42 c 0.69,-0.05 1.36,-0.09 2.02,-0.14 1.34,-0.1 2.69,-0.2 4.03,-0.31 1.19,-0.1 2.39,-0.2 3.58,-0.3 1.37,-0.12 2.74,-0.25 4.11,-0.38 1.3,-0.12 2.6,-0.24 3.9,-0.37 1.29,-0.12 2.59,-0.25 3.88,-0.38 1.16,-0.11 2.33,-0.22 3.49,-0.33 1.22,-0.12 2.44,-0.23 3.67,-0.34 1.26,-0.11 2.53,-0.23 3.79,-0.33 1.42,-0.12 2.84,-0.23 4.26,-0.34 1.11,-0.08 2.21,-0.16 3.33,-0.2 -0.04,0.02 -0.08,0.04 -0.12,0.06 -3.69,1.35 -7.43,2.52 -11.23,3.51 -3.05,0.79 -6.11,1.5 -9.21,2.08 -2.35,0.44 -4.71,0.85 -7.08,1.23 -2.04,0.32 -4.09,0.58 -6.13,0.85 C 7.03,48.91 5.61,49.04 4.2,49.2 4.05,49.22 3.97,49.17 3.91,49.03 3.23,47.56 2.65,46.06 2.18,44.52 2.18,44.5 2.17,44.48 2.15,44.43 Z"
         id="path64"
         style="fill:url(#New_Gradient_Swatch_3-8)" />
      <path
         class="cls-36"
         d="M 45.85,22.27 C 39.98,19.97 34.04,17.87 28.02,16 22,14.12 15.91,12.48 9.71,11.14 c 0.17,-0.18 0.32,-0.35 0.48,-0.52 0.98,-1.02 2.01,-1.98 3.1,-2.88 0.1,-0.08 0.18,-0.09 0.29,-0.06 4.53,1.17 8.98,2.61 13.33,4.32 2.99,1.18 5.92,2.47 8.78,3.92 3.06,1.55 6.04,3.25 8.82,5.27 0.46,0.34 0.91,0.69 1.36,1.03 0,0.01 -0.01,0.03 -0.02,0.04 z"
         id="path66"
         style="fill:url(#New_Gradient_Swatch_3-9)" />
      <path
         class="cls-16"
         d="m 45.94,46.84 c -0.33,0.26 -0.67,0.53 -1,0.79 -2.26,1.71 -4.67,3.17 -7.16,4.51 -4.93,2.68 -10.08,4.87 -15.38,6.71 -2.79,0.97 -5.61,1.83 -8.47,2.57 -0.12,0.03 -0.2,0.02 -0.29,-0.06 -1.25,-1 -2.43,-2.09 -3.54,-3.25 -0.03,-0.03 -0.06,-0.07 -0.1,-0.13 6.15,-1.35 12.2,-3 18.19,-4.89 5.99,-1.88 11.89,-3.99 17.75,-6.26 z"
         id="path68"
         style="fill:url(#New_Gradient_Swatch_3-10)" />
      <path
         class="cls-18"
         d="M 49.28,19.86 C 38.61,14.08 27.6,9.14 15.86,5.82 c 0.26,-0.17 0.49,-0.33 0.73,-0.48 1.08,-0.69 2.2,-1.32 3.35,-1.88 0.08,-0.04 0.21,-0.05 0.3,-0.03 4.11,1.23 8.1,2.8 11.94,4.7 5.42,2.69 10.43,5.99 15.04,9.89 0.66,0.56 1.3,1.13 1.94,1.7 0.04,0.04 0.08,0.08 0.12,0.12 z"
         id="path70"
         style="fill:url(#New_Gradient_Swatch_3-11)" />
      <path
         class="cls-17"
         d="m 49.39,49.21 c -0.46,0.41 -0.91,0.82 -1.37,1.22 -3.74,3.27 -7.76,6.15 -12.08,8.61 -4.17,2.38 -8.53,4.34 -13.08,5.88 -0.7,0.24 -1.41,0.46 -2.11,0.69 -0.13,0.04 -0.23,0.03 -0.35,-0.03 -1.38,-0.66 -2.72,-1.4 -4.01,-2.23 -0.03,-0.02 -0.07,-0.05 -0.13,-0.09 11.63,-3.34 22.55,-8.28 33.13,-14.05 z"
         id="path72"
         style="fill:url(#New_Gradient_Swatch_3-12)" />
      <path
         class="cls-20"
         d="M 52.16,18.11 C 43.16,11.33 33.45,5.89 22.71,2.25 23.17,2.09 23.59,1.91 24.02,1.79 25.06,1.48 26.1,1.19 27.15,0.9 c 0.09,-0.03 0.21,-0.01 0.31,0.02 5.44,1.97 10.48,4.68 15.12,8.14 1.91,1.43 3.72,2.97 5.43,4.62 1.4,1.35 2.73,2.76 4,4.23 0.05,0.06 0.11,0.13 0.16,0.19 z"
         id="path74"
         style="fill:url(#New_Gradient_Swatch_3-13)" />
      <path
         class="cls-23"
         d="m 52.28,50.96 c -0.61,0.68 -1.21,1.37 -1.82,2.04 -4.56,4.95 -9.82,9 -15.79,12.11 -2.12,1.11 -4.3,2.08 -6.54,2.92 -0.1,0.04 -0.22,0.06 -0.33,0.03 -1.49,-0.31 -2.94,-0.73 -4.38,-1.24 -0.04,-0.02 -0.08,-0.03 -0.16,-0.07 10.58,-3.66 20.15,-9.08 28.99,-15.83 0,0.01 0.02,0.02 0.03,0.03 z"
         id="path76"
         style="fill:url(#New_Gradient_Swatch_3-14)" />
      <path
         class="cls-22"
         d="m 37.75,0.11 c 0.73,0.09 1.46,0.18 2.19,0.27 0.92,0.1 1.75,0.5 2.6,0.84 3.25,1.3 6.28,3 9.01,5.2 3.16,2.55 5.77,5.56 7.7,9.14 0.52,0.97 0.98,1.96 1.33,3 0.02,0.07 0.04,0.13 0.03,0.21 -0.03,-0.04 -0.07,-0.07 -0.1,-0.11 -1.7,-2.22 -3.52,-4.34 -5.46,-6.35 C 51.36,8.5 47.28,5.18 42.66,2.56 41.12,1.68 39.53,0.9 37.89,0.22 37.85,0.2 37.8,0.18 37.76,0.17 c 0,-0.02 0,-0.04 0,-0.05 z"
         id="path78"
         style="fill:url(#New_Gradient_Swatch_3-15)" />
      <path
         class="cls-25"
         d="m 38.86,68.56 c 0.57,-0.27 1.14,-0.53 1.7,-0.81 3.34,-1.66 6.43,-3.71 9.31,-6.07 1.64,-1.34 3.19,-2.77 4.68,-4.27 2.17,-2.2 4.17,-4.53 6.03,-6.99 0.04,-0.05 0.08,-0.1 0.15,-0.14 -0.02,0.07 -0.04,0.13 -0.06,0.2 -0.43,1.31 -1.03,2.55 -1.71,3.75 -2.01,3.52 -4.68,6.47 -7.89,8.94 -2.58,1.99 -5.41,3.55 -8.44,4.75 -0.46,0.18 -0.96,0.25 -1.45,0.33 -0.72,0.13 -1.45,0.23 -2.18,0.34 -0.05,0 -0.09,0 -0.14,0 0,0 0,-0.02 0,-0.02 z"
         id="path80"
         style="fill:url(#New_Gradient_Swatch_3-16)" />
      <path
         class="cls-24"
         d="m 48.76,2.61 c 0.09,0.04 0.17,0.09 0.26,0.13 1.98,1.03 3.93,2.12 5.8,3.35 3.14,2.07 5.63,4.81 7.42,8.25 1.18,2.26 2.04,4.67 2.82,7.11 0.12,0.37 0.23,0.75 0.36,1.17 C 65.14,22.45 64.88,22.36 64.73,22.09 63.87,20.55 62.98,19.02 62.15,17.46 60.64,14.6 58.86,11.96 56.76,9.56 54.69,7.2 52.45,5.06 49.87,3.35 49.5,3.1 49.12,2.87 48.74,2.63 c 0,-0.01 0,-0.02 0.01,-0.03 z"
         id="path82"
         style="fill:url(#New_Gradient_Swatch_3-17)" />
      <path
         class="cls-27"
         d="m 66.18,45.93 c -0.46,1.25 -0.89,2.46 -1.35,3.65 -0.74,1.91 -1.58,3.77 -2.69,5.48 -0.47,0.71 -1.03,1.36 -1.59,2 -1.7,1.94 -3.58,3.68 -5.64,5.17 -0.61,0.44 -1.28,0.81 -1.94,1.15 -1.46,0.77 -2.94,1.5 -4.41,2.25 -0.02,0 -0.03,0 -0.06,-0.01 0.12,-0.07 0.23,-0.13 0.35,-0.2 2.31,-1.29 4.4,-2.91 6.33,-4.78 2.12,-2.05 4.11,-4.25 5.74,-6.77 1.02,-1.59 1.95,-3.24 2.93,-4.86 0.48,-0.79 0.98,-1.57 1.45,-2.37 0.2,-0.34 0.47,-0.58 0.88,-0.73 z"
         id="path84"
         style="fill:url(#New_Gradient_Swatch_3-18)" />
    </g>
    <g
       id="g124"
       transform="translate(-0.69)">
      <path
         class="cls-26"
         d="m 55.69,17.52 c 0.29,0.04 0.57,0.07 0.86,0.11 0.1,0.01 0.21,0.03 0.36,0.06 -4.09,2.16 -7.26,5.29 -10.08,8.81 0.08,-0.16 0.16,-0.32 0.25,-0.48 1.06,-2.07 2.37,-3.96 4.05,-5.59 1.13,-1.09 2.38,-2.02 3.76,-2.77 0.08,-0.04 0.15,-0.09 0.22,-0.14 0.19,0 0.38,0 0.57,0 z"
         id="path88"
         style="fill:url(#New_Gradient_Swatch_3-19)" />
      <path
         class="cls-21"
         d="m 54.75,51.9 c -0.05,-0.04 -0.1,-0.08 -0.15,-0.11 -2.31,-1.31 -4.19,-3.08 -5.73,-5.23 -0.77,-1.08 -1.43,-2.23 -2.02,-3.41 -0.02,-0.03 -0.03,-0.06 -0.03,-0.1 2.75,3.48 5.84,6.57 9.78,8.75 -0.23,0.02 -0.47,0.05 -0.7,0.07 -0.07,0 -0.14,0.02 -0.2,0.03 h -0.93 z"
         id="path90"
         style="fill:url(#New_Gradient_Swatch_3-20)" />
      <path
         class="cls-15"
         d="m 51.77,29.98 c 0.67,-0.65 1.41,-1.14 2.17,-1.59 2.19,-1.3 4.51,-2.3 6.9,-3.14 1.41,-0.49 2.85,-0.91 4.3,-1.27 0.13,-0.03 0.2,-0.02 0.27,0.11 0.44,0.75 0.84,1.53 1.18,2.36 -0.33,0.06 -0.64,0.12 -0.95,0.18 -2.74,0.51 -5.45,1.15 -8.14,1.88 -1.67,0.45 -3.33,0.92 -5,1.38 -0.17,0.05 -0.35,0.09 -0.52,0.11 -0.07,0.01 -0.14,-0.02 -0.22,-0.03 z"
         id="path92"
         style="fill:url(#New_Gradient_Swatch_3-21)" />
      <path
         class="cls-19"
         d="m 51.75,39.59 c 0,0 0.05,0 0.08,0 -0.02,-0.03 -0.03,-0.05 -0.05,-0.08 0.02,0 0.04,0 0.05,0 1.11,0.3 2.23,0.58 3.33,0.9 3.43,0.98 6.88,1.86 10.39,2.54 0.32,0.06 0.64,0.12 1,0.19 -0.2,0.42 -0.38,0.83 -0.59,1.22 -0.2,0.38 -0.43,0.75 -0.63,1.13 -0.06,0.11 -0.12,0.14 -0.25,0.11 -2.93,-0.73 -5.77,-1.72 -8.49,-3.01 -1.34,-0.64 -2.65,-1.34 -3.86,-2.2 -0.34,-0.24 -0.66,-0.51 -0.99,-0.76 l 0.02,-0.04 z"
         id="path94"
         style="fill:url(#New_Gradient_Swatch_3-22)" />
      <path
         class="cls-12"
         d="m 68.19,33.89 c -5.18,0 -10.33,-0.14 -15.5,-0.3 0.05,-0.02 0.1,-0.04 0.16,-0.06 2.18,-0.65 4.39,-1.12 6.64,-1.45 2.19,-0.32 4.4,-0.52 6.61,-0.62 0.57,-0.03 1.13,-0.04 1.7,-0.06 0.13,0 0.19,0.02 0.2,0.17 0.06,0.73 0.13,1.45 0.2,2.18 0,0.03 0,0.07 0,0.14 z"
         id="path96"
         style="fill:url(#New_Gradient_Swatch_3-23)" />
      <path
         class="cls-9"
         d="m 52.68,35.91 c 5.16,-0.08 10.31,-0.16 15.5,-0.24 -0.02,0.87 -0.11,1.69 -0.24,2.53 -5.18,-0.15 -10.29,-0.7 -15.26,-2.22 0,-0.02 0,-0.04 0,-0.06 z"
         id="path98"
         style="fill:url(#New_Gradient_Swatch_3-24)" />
      <path
         class="cls-8"
         d="m 67.03,27.49 c 0.23,0.8 0.45,1.58 0.69,2.4 -5.14,0.42 -10.19,1.26 -15.29,1.66 2.27,-1.12 4.65,-1.96 7.1,-2.61 2.45,-0.66 4.94,-1.13 7.51,-1.44 z"
         id="path100"
         style="fill:url(#New_Gradient_Swatch_3-25)" />
      <path
         class="cls-11"
         d="M 66.97,42.11 C 61.89,41.43 57,40.24 52.4,38.01 c 5.09,0.41 10.13,1.27 15.27,1.7 -0.24,0.81 -0.47,1.6 -0.71,2.4 z"
         id="path102"
         style="fill:url(#New_Gradient_Swatch_3-26)" />
      <path
         class="cls-14"
         d="m 64.8,23.07 c -4.84,1.38 -9.39,3.31 -13.83,5.53 0.12,-0.12 0.23,-0.24 0.35,-0.36 0.12,-0.12 0.25,-0.24 0.37,-0.36 1.93,-1.75 4.1,-3.14 6.41,-4.34 1.64,-0.86 3.34,-1.58 5.09,-2.17 0.06,-0.02 0.17,-0.02 0.2,0.02 0.46,0.54 0.92,1.09 1.41,1.67 z"
         id="path104"
         style="fill:url(#New_Gradient_Swatch_3-27)" />
      <path
         class="cls-13"
         d="m 64.7,46.5 c -0.49,0.57 -0.96,1.12 -1.44,1.66 -0.03,0.04 -0.14,0.03 -0.2,0 -1.03,-0.4 -2.08,-0.78 -3.09,-1.23 -2.62,-1.17 -5.08,-2.61 -7.3,-4.42 -0.6,-0.49 -1.16,-1.02 -1.71,-1.57 4.41,2.22 8.93,4.16 13.74,5.55 z"
         id="path106"
         style="fill:url(#New_Gradient_Swatch_3-28)" />
      <path
         class="cls-10"
         d="m 49.68,27.42 c 1.15,-1.4 2.42,-2.68 3.8,-3.84 2.15,-1.8 4.52,-3.25 7.13,-4.3 0.12,-0.05 0.22,-0.05 0.33,0.03 0.48,0.36 0.97,0.72 1.5,1.11 -4.64,1.72 -8.79,4.2 -12.77,7 z"
         id="path108"
         style="fill:url(#New_Gradient_Swatch_3-29)" />
      <path
         class="cls-7"
         d="m 62.26,49.17 c -0.52,0.37 -1.04,0.74 -1.57,1.09 -0.06,0.04 -0.17,0.02 -0.24,0 -2.04,-0.83 -3.93,-1.91 -5.69,-3.23 -1.87,-1.39 -3.53,-3 -5.03,-4.78 -0.02,-0.03 -0.04,-0.06 -0.06,-0.1 3.93,2.78 8.03,5.25 12.56,6.96 0,0.02 0.02,0.04 0.03,0.06 z"
         id="path110"
         style="fill:url(#New_Gradient_Swatch_3-30)" />
      <path
         class="cls-6"
         d="m 59.77,18.66 c -4.23,1.88 -7.85,4.62 -11.15,7.82 0.02,-0.04 0.03,-0.08 0.06,-0.11 1.81,-2.73 3.99,-5.12 6.75,-6.93 0.8,-0.53 1.67,-0.96 2.51,-1.44 0.05,-0.03 0.13,-0.04 0.18,-0.02 0.55,0.2 1.1,0.41 1.65,0.62 0,0.02 0,0.04 0,0.06 z"
         id="path112"
         style="fill:url(#New_Gradient_Swatch_3-31)" />
      <path
         class="cls-5"
         d="m 48.57,43 c 3.24,3.22 6.81,5.95 11.02,7.87 -0.14,0.07 -0.26,0.13 -0.38,0.17 -0.42,0.16 -0.84,0.31 -1.26,0.45 -0.09,0.03 -0.22,0.02 -0.3,-0.03 -1.91,-0.95 -3.62,-2.17 -5.17,-3.64 -1.47,-1.4 -2.74,-2.96 -3.84,-4.65 -0.03,-0.04 -0.05,-0.08 -0.08,-0.12 0,0 0,-0.02 0,-0.05 z"
         id="path114"
         style="fill:url(#New_Gradient_Swatch_3-32)" />
      <path
         class="cls-4"
         d="m 54.03,17.63 c -0.83,0.45 -1.61,0.98 -2.34,1.57 -1.84,1.47 -3.37,3.23 -4.7,5.15 -0.54,0.78 -1.03,1.6 -1.55,2.4 -0.03,0.05 -0.06,0.1 -0.09,0.15 -0.02,0 -0.03,-0.01 -0.05,-0.02 0.18,-0.5 0.33,-1.01 0.53,-1.5 1.09,-2.67 2.77,-4.88 5.18,-6.5 0.59,-0.4 1.22,-0.74 1.87,-1.04 0.35,-0.16 0.76,-0.18 1.14,-0.26 0,0.02 0,0.04 0.01,0.06 z"
         id="path116"
         style="fill:url(#New_Gradient_Swatch_3-33)" />
      <path
         class="cls-3"
         d="m 53.6,51.74 c -0.6,-0.09 -1.19,-0.16 -1.73,-0.47 -2.64,-1.5 -4.52,-3.68 -5.79,-6.4 -0.33,-0.71 -0.6,-1.44 -0.76,-2.22 0.04,0.07 0.08,0.13 0.12,0.2 1.06,1.8 2.24,3.51 3.63,5.07 1.32,1.48 2.78,2.78 4.5,3.8 0.01,0 0.03,0.02 0.04,0.03 z"
         id="path118"
         style="fill:url(#New_Gradient_Swatch_3-34)" />
      <path
         class="cls-2"
         d="m 43.66,27.93 c 0.05,-0.19 0.11,-0.38 0.16,-0.58 0.35,-1.21 0.75,-2.4 1.32,-3.52 0.75,-1.47 1.82,-2.66 3.22,-3.56 0.49,-0.32 0.98,-0.63 1.49,-0.91 -0.26,0.21 -0.53,0.41 -0.78,0.62 -1.08,0.93 -1.95,2.03 -2.75,3.19 -0.7,1.02 -1.22,2.14 -1.75,3.26 -0.2,0.43 -0.42,0.85 -0.64,1.27 -0.05,0.1 -0.15,0.17 -0.22,0.26 -0.02,-0.01 -0.03,-0.02 -0.05,-0.03 z"
         id="path120"
         style="fill:url(#New_Gradient_Swatch_3-35)" />
      <path
         class="cls-1"
         d="m 43.68,41.57 c 0.07,0.09 0.16,0.17 0.21,0.27 0.49,0.99 0.96,1.99 1.46,2.97 0.75,1.49 1.72,2.83 2.89,4.03 0.47,0.48 0.99,0.91 1.51,1.35 -0.03,-0.01 -0.07,-0.02 -0.09,-0.04 -0.64,-0.42 -1.32,-0.79 -1.9,-1.27 -0.59,-0.49 -1.09,-1.1 -1.6,-1.67 -1.11,-1.23 -1.69,-2.74 -2.15,-4.29 -0.12,-0.39 -0.23,-0.79 -0.34,-1.18 -0.01,-0.04 -0.02,-0.09 -0.03,-0.13 l 0.05,-0.03 z"
         id="path122"
         style="fill:url(#New_Gradient_Swatch_3-36)" />
    </g>
  </g>
</svg>
